<?xml version="1.0" encoding="UTF-8"?>
<svg id="Layer_1" data-name="Layer 1" xmlns="http://www.w3.org/2000/svg" version="1.1" viewBox="0 0 179.6 94">
  <defs>
    <style>
      .cls-1 {
        fill: #fff;
        stroke-width: 0px;
      }
    </style>
  </defs>
  <path class="cls-1" d="M34.9,70.3v-2.1c4.6-.6,5.1-1.3,4.1-4.1-.9-2.7-2.3-6.2-3.7-10.4h-15.2c-1.1,3-2.1,5.8-3.1,8.6-1.6,4.6-.4,5.2,5.4,5.9v2.1H5.6v-2.1c4.5-.6,5.7-1.1,8.2-7.5l14.8-37.5,2.5-.5c4.5,12.3,9.5,25.7,14,38,2.4,6.3,3,6.9,8,7.4v2.1h-18.3ZM27.9,32.8c-2.3,6-4.6,12.2-6.7,17.8h13l-6.3-17.8Z"/>
  <path class="cls-1" d="M73.9,23.7c5.2,0,9.3.9,12.3,3.1,2.9,2.1,4.9,5.5,4.9,10.3,0,10.4-8.9,14.7-15.9,14.7-.8,0-1.5,0-2-.1l-4.8-1.3v10.9c0,6,.5,6.2,7,6.9v2.1h-20.3v-2.1c6-.6,6.4-1,6.4-7v-28.3c0-6.3-.8-6.5-6.4-7.1v-2.1h18.8ZM68.4,47.7c.9.4,2.7.9,5,.9,4.5,0,10.4-2.3,10.4-11.5s-5-11-10.8-11-3.4.4-3.8.8c-.6.5-.8,1.3-.8,3.1v17.6Z"/>
  <path class="cls-1" d="M143.9,25.8c-4.5.3-6.1,1.5-6.3,4.7,0,1.7-.2,4.6-.2,11v8c0,7.1-.9,12.8-5,17.2-3.4,3.5-8.3,4.6-13.2,4.6s-8.8-.9-11.9-3.4c-4.3-3.3-6.3-8.1-6.3-16.4v-18.2c0-6.5-.6-6.9-6.3-7.4v-2.1h19.4v2.1c-5.7.4-6.3.9-6.3,7.4v18.1c0,10,4.8,15.7,13.2,15.7s13.2-6.3,13.2-18v-7.6c0-6.3-.2-9-.4-11-.2-3.2-1.9-4.4-7.2-4.7v-2.1h17.3v2.1Z"/>
  <path class="cls-1" d="M170.9,34.7c-1.3-4.7-3.3-9.5-10-9.5s-7.4,3.9-7.4,7.7,3.1,7.2,9.1,10.3c8.4,4.3,12.4,7.7,12.4,14.6s-6.6,13.5-16,13.5-8.1-1.2-11.2-2.3c-.5-1.9-1.5-7.3-2-11.1l2.3-.6c1.4,4.7,4.7,11.3,12.1,11.3s8.1-3.4,8.1-8.1-2.9-7.5-9.1-10.9c-7.5-4.1-11.9-7.5-11.9-14.3s5.4-12.6,15.1-12.6,8.1,1.1,9.6,1.3c.3,2.6.6,5.6,1.2,10.2l-2.3.5Z"/>
</svg>